<svg xmlns="http://www.w3.org/2000/svg" xmlns:xlink="http://www.w3.org/1999/xlink" version="1.1" x="0px" y="0px" viewBox="0 0 100 100" enable-background="new 0 0 100 100" xml:space="preserve"><path fill-rule="evenodd" clip-rule="evenodd" d="M66.25,38.198c-7.633,1.9-12.584,5.867-14.85,11.9  c0.033,0.1,0.049,0.184,0.049,0.25v28.648c0,0.602-0.217,1.117-0.648,1.551c-0.367,0.4-0.852,0.6-1.451,0.6  c-0.633,0-1.15-0.199-1.549-0.6c-0.4-0.434-0.602-0.949-0.602-1.551V50.547c0-0.867,0.018-1.699,0.051-2.5  C45.85,22.614,61.768,13.797,95,21.598c-7.033,31.566-20.783,42.648-41.25,33.25c0.934-6.768,5.184-12.334,12.75-16.701  C66.467,38.147,66.383,38.165,66.25,38.198z M36.65,53.497c-2.668-3.865-6.717-6.633-12.15-8.299c5.934,4.199,9.4,8.732,10.4,13.6  c-14.033,5.066-24-3.334-29.9-25.199c23.768-4.566,35.75,1.766,35.949,19C40.982,52.665,41,52.764,41,52.897c0,0.1,0,0.184,0,0.25  c0,0.234-0.018,0.5-0.051,0.801c0,0.299,0,0.6,0,0.9c0,0.1,0,0.184,0,0.25v23.898c0,0.602-0.217,1.117-0.648,1.551  c-0.4,0.4-0.9,0.6-1.5,0.6c-0.602,0-1.117-0.199-1.551-0.6c-0.4-0.434-0.6-0.949-0.6-1.551V54.047c0-0.066,0-0.133,0-0.199  C36.65,53.713,36.65,53.598,36.65,53.497z"></path></svg>